<svg width="193" height="36" viewBox="0 0 193 36" fill="none" xmlns="http://www.w3.org/2000/svg">
<path d="M0 1.82812C0.75 2.01563 1.46484 2.15625 2.14453 2.25C2.82422 2.34375 3.42188 2.41406 3.9375 2.46094C4.54688 2.53125 5.10938 2.55469 5.625 2.53125C6.28125 2.53125 7.10156 2.47266 8.08594 2.35547C9.09375 2.23828 10.125 2.13281 11.1797 2.03906C12.2344 1.92187 13.2422 1.85156 14.2031 1.82812C15.1875 1.78125 15.9844 1.83984 16.5938 2.00391C17.2031 2.14453 17.8242 2.36719 18.457 2.67188C19.1133 2.95312 19.7109 3.31641 20.25 3.76172C20.7891 4.18359 21.2344 4.6875 21.5859 5.27344C21.9375 5.83594 22.1367 6.48047 22.1836 7.20703C22.1602 8.12109 21.9492 8.97656 21.5508 9.77344C21.2227 10.4531 20.6719 11.1562 19.8984 11.8828C19.125 12.5859 18.0117 13.125 16.5586 13.5C17.2852 13.5938 17.9062 13.7578 18.4219 13.9922C18.9609 14.2031 19.418 14.4609 19.793 14.7656C20.1914 15.0469 20.5078 15.3633 20.7422 15.7148C21 16.0664 21.1992 16.418 21.3398 16.7695C21.6914 17.5898 21.8555 18.5039 21.832 19.5117C21.6914 20.8242 21.4219 21.8672 21.0234 22.6406C20.6484 23.4141 20.2148 24.0117 19.7227 24.4336C19.2305 24.8555 18.7266 25.1484 18.2109 25.3125C17.6953 25.4766 17.2266 25.6055 16.8047 25.6992C16.3828 25.793 15.8672 25.8398 15.2578 25.8398C14.6484 25.8398 13.9922 25.8281 13.2891 25.8047C12.6094 25.7578 11.9062 25.7227 11.1797 25.6992C10.4531 25.6523 9.76172 25.6523 9.10547 25.6992C8.56641 25.7461 7.91016 25.793 7.13672 25.8398C6.48047 25.8867 5.66016 25.9453 4.67578 26.0156C3.69141 26.0625 2.54297 26.1211 1.23047 26.1914C1.48828 26.0039 1.69922 25.793 1.86328 25.5586C2.05078 25.3008 2.20312 25.0781 2.32031 24.8906C2.4375 24.6562 2.54297 24.4336 2.63672 24.2227C2.70703 24.0352 2.76562 23.5195 2.8125 22.6758C2.85938 21.832 2.89453 20.8242 2.91797 19.6523C2.94141 18.457 2.95312 17.1797 2.95312 15.8203C2.97656 14.4375 2.96484 13.1133 2.91797 11.8477C2.89453 10.5586 2.84766 9.42188 2.77734 8.4375C2.73047 7.42969 2.66016 6.70312 2.56641 6.25781C2.42578 5.76562 2.23828 5.26172 2.00391 4.74609C1.81641 4.30078 1.54688 3.82031 1.19531 3.30469C0.867188 2.78906 0.46875 2.29688 0 1.82812ZM7.41797 5.41406C7.41797 5.50781 7.42969 5.82422 7.45312 6.36328C7.47656 6.83203 7.5 7.55859 7.52344 8.54297C7.57031 9.50391 7.62891 10.875 7.69922 12.6562C8.28516 12.9141 8.85938 13.0547 9.42188 13.0781C9.98438 13.0781 10.4883 13.0547 10.9336 13.0078C11.4492 12.9375 11.9414 12.8203 12.4102 12.6562C13.043 12.3984 13.5352 11.9766 13.8867 11.3906C14.2617 10.8047 14.5078 10.1953 14.625 9.5625C14.7656 8.90625 14.8008 8.29688 14.7305 7.73438C14.6602 7.14844 14.5078 6.72656 14.2734 6.46875C13.8281 6.07031 13.2773 5.74219 12.6211 5.48438C12.0586 5.27344 11.3438 5.13281 10.4766 5.0625C9.63281 4.96875 8.61328 5.08594 7.41797 5.41406ZM7.24219 22.0781C8.10938 22.5234 8.87109 22.8164 9.52734 22.957C10.1836 23.0977 10.7344 23.168 11.1797 23.168C11.6953 23.168 12.1406 23.0977 12.5156 22.957C12.9609 22.7461 13.3945 22.4648 13.8164 22.1133C14.2617 21.7383 14.5898 21.3047 14.8008 20.8125C15.0352 20.2969 15.1289 19.7344 15.082 19.125C15.0352 18.4922 14.7656 17.8008 14.2734 17.0508C13.8281 16.5117 13.2891 16.0898 12.6562 15.7852C12.0938 15.5273 11.3789 15.3633 10.5117 15.293C9.66797 15.2227 8.625 15.4219 7.38281 15.8906L7.24219 22.0781ZM23.8008 11.25L30.2695 11.3203C29.8945 12.75 29.6133 13.9688 29.4258 14.9766C29.2617 15.9844 29.1562 16.8281 29.1094 17.5078C29.0156 18.2812 28.9922 18.9375 29.0391 19.4766C29.1094 19.9688 29.2266 20.4961 29.3906 21.0586C29.5312 21.5273 29.7422 22.0664 30.0234 22.6758C30.3047 23.2852 30.6797 23.8945 31.1484 24.5039C30.8672 24.4102 30.5625 24.3398 30.2344 24.293C29.9062 24.2461 29.6016 24.2109 29.3203 24.1875C28.9922 24.1641 28.6641 24.1641 28.3359 24.1875C28.0078 24.2109 27.6445 24.2461 27.2461 24.293C26.918 24.3398 26.5195 24.3984 26.0508 24.4688C25.582 24.5391 25.0898 24.6328 24.5742 24.75C24.9258 23.6953 25.1953 22.7812 25.3828 22.0078C25.5938 21.2344 25.7461 20.5898 25.8398 20.0742C25.9336 19.4648 25.9922 18.9727 26.0156 18.5977C26.0156 18.1289 26.0156 17.6016 26.0156 17.0156C26.0156 16.4062 26.0156 15.8203 26.0156 15.2578C26.0156 14.6953 26.0039 14.2031 25.9805 13.7812C25.957 13.3359 25.9102 13.0547 25.8398 12.9375L25.4883 12.5859C25.3477 12.4688 25.1367 12.3047 24.8555 12.0938C24.5977 11.8594 24.2461 11.5781 23.8008 11.25ZM26.2969 5.83594C26.7891 5.57812 27.2812 5.50781 27.7734 5.625C28.2891 5.74219 28.6875 5.96484 28.9688 6.29297C29.25 6.62109 29.3438 7.00781 29.25 7.45312C29.1797 7.89844 28.8047 8.33203 28.125 8.75391C27.4453 9.15234 26.8477 9.29297 26.332 9.17578C25.8164 9.05859 25.4531 8.8125 25.2422 8.4375C25.0312 8.0625 24.9961 7.62891 25.1367 7.13672C25.2773 6.62109 25.6641 6.1875 26.2969 5.83594ZM33.5039 23.0977C33.668 22.3242 33.7852 21.6445 33.8555 21.0586C33.9492 20.4492 34.0195 19.9453 34.0664 19.5469C34.1133 19.0781 34.1367 18.6797 34.1367 18.3516C34.1133 17.9531 34.0898 17.4844 34.0664 16.9453C34.0664 16.3828 34.043 15.832 33.9961 15.293C33.9727 14.7305 33.9375 14.2383 33.8906 13.8164C33.8438 13.3711 33.7852 13.0547 33.7148 12.8672C33.6211 12.6797 33.4922 12.4805 33.3281 12.2695C33 11.8711 32.5195 11.4844 31.8867 11.1094C32.4258 10.9922 32.8828 10.8984 33.2578 10.8281C33.6562 10.7344 33.9844 10.6523 34.2422 10.582C34.5234 10.4883 34.7695 10.4062 34.9805 10.3359C35.168 10.2656 35.3906 10.1953 35.6484 10.125C35.8594 10.0781 36.1172 10.0195 36.4219 9.94922C36.7266 9.87891 37.0781 9.79688 37.4766 9.70312L37.3711 12.9023C38.1211 12.0117 38.8828 11.3438 39.6562 10.8984C40.4297 10.4531 41.1562 10.1367 41.8359 9.94922C42.6094 9.71484 43.3711 9.59766 44.1211 9.59766C45.0586 9.64453 45.9258 9.79688 46.7227 10.0547C47.543 10.3125 48.2461 10.6172 48.832 10.9688C49.4414 11.2969 49.9336 11.6484 50.3086 12.0234C50.6836 12.3984 50.9062 12.7266 50.9766 13.0078C51.2578 13.9219 51.3281 14.7656 51.1875 15.5391C51.0469 16.2891 50.8594 17.0273 50.625 17.7539C50.4141 18.457 50.2266 19.1602 50.0625 19.8633C49.9219 20.5664 49.9805 21.3281 50.2383 22.1484C50.332 22.3594 50.4258 22.5703 50.5195 22.7812C50.6133 22.9688 50.7305 23.1562 50.8711 23.3438C51.0117 23.5312 51.1758 23.6836 51.3633 23.8008C51.1055 23.7773 50.8477 23.7656 50.5898 23.7656C50.332 23.7422 50.0977 23.7188 49.8867 23.6953C49.6289 23.6719 49.3945 23.6484 49.1836 23.625C48.9492 23.6016 48.6328 23.5898 48.2344 23.5898C47.5547 23.5898 46.5 23.625 45.0703 23.6953C45.2812 23.2031 45.4453 22.793 45.5625 22.4648C45.7031 22.1133 45.8203 21.832 45.9141 21.6211C46.0078 21.3633 46.0781 21.1641 46.125 21.0234C46.4062 20.3438 46.5703 19.5703 46.6172 18.7031C46.6875 17.8359 46.6289 16.957 46.4414 16.0664C46.3711 15.7617 46.2539 15.3984 46.0898 14.9766C45.9258 14.5547 45.7031 14.1445 45.4219 13.7461C45.1641 13.3477 44.8477 13.0078 44.4727 12.7266C44.1211 12.4453 43.7109 12.2812 43.2422 12.2344C42.7734 12.1875 42.2461 12.3047 41.6602 12.5859C41.0977 12.8672 40.4883 13.3828 39.832 14.1328C39.3398 14.7656 38.9531 15.5391 38.6719 16.4531C38.4141 17.2266 38.2383 18.1992 38.1445 19.3711C38.0508 20.5195 38.1914 21.8672 38.5664 23.4141C38.2383 23.3672 37.9336 23.3438 37.6523 23.3438C37.3711 23.3203 37.1367 23.2969 36.9492 23.2734C36.7148 23.25 36.5039 23.2266 36.3164 23.2031C36.1055 23.2031 35.8711 23.1914 35.6133 23.168C35.3789 23.168 35.0859 23.168 34.7344 23.168C34.3828 23.1445 33.9727 23.1211 33.5039 23.0977ZM56.1445 12.7266C56.2617 12.5859 56.332 12.3281 56.3555 11.9531C56.4023 11.5547 56.4961 11.1094 56.6367 10.6172C56.8008 10.125 57.0703 9.60938 57.4453 9.07031C57.8203 8.53125 58.4297 8.02734 59.2734 7.55859C60.0938 7.08984 60.8906 6.80859 61.6641 6.71484C62.4375 6.62109 63.1758 6.65625 63.8789 6.82031C64.582 6.98437 65.2383 7.24219 65.8477 7.59375C66.4805 7.94531 67.0547 8.33203 67.5703 8.75391C67.9219 9.03516 68.2031 9.44531 68.4141 9.98438C68.625 10.5 68.7891 11.0859 68.9062 11.7422C69.0234 12.3984 69.1055 13.0898 69.1523 13.8164C69.2227 14.5195 69.2695 15.2109 69.293 15.8906C69.3164 16.5469 69.3281 17.1562 69.3281 17.7188C69.3516 18.2578 69.3984 18.7031 69.4688 19.0547C69.5625 19.5703 69.7266 20.0156 69.9609 20.3906C70.1953 20.7422 70.4531 21.0469 70.7344 21.3047C71.0156 21.5391 71.2969 21.7266 71.5781 21.8672C71.8594 22.0078 72.1055 22.1133 72.3164 22.1836C72.457 22.2539 72.5859 22.3008 72.7031 22.3242C72.9375 22.418 73.1016 22.418 73.1953 22.3242C73.0547 22.6523 72.9258 22.9336 72.8086 23.168C72.6914 23.4023 72.5977 23.6016 72.5273 23.7656C72.4336 23.9531 72.3516 24.1055 72.2812 24.2227C72.2109 24.3633 72.1289 24.4922 72.0352 24.6094C71.9648 24.7266 71.8711 24.8555 71.7539 24.9961C71.6367 25.1367 71.5195 25.2891 71.4023 25.4531C71.0977 25.3359 70.8047 25.1953 70.5234 25.0312C70.2656 24.8672 70.0312 24.7148 69.8203 24.5742C69.5625 24.4102 69.3281 24.2461 69.1172 24.082C68.9062 23.918 68.707 23.7305 68.5195 23.5195C68.3555 23.332 68.1797 23.1328 67.9922 22.9219C67.8281 22.7109 67.6875 22.4766 67.5703 22.2188C67.4297 22.5234 67.0898 22.957 66.5508 23.5195C66.0352 24.082 65.3555 24.5977 64.5117 25.0664C63.668 25.5117 62.6836 25.8281 61.5586 26.0156C60.457 26.2031 59.2383 26.0742 57.9023 25.6289C57.3164 25.4414 56.7656 25.1719 56.25 24.8203C55.7344 24.4453 55.2891 24 54.9141 23.4844C54.5625 22.9688 54.3047 22.3828 54.1406 21.7266C54 21.0469 54.0117 20.2969 54.1758 19.4766C54.3398 18.6562 54.6328 17.9648 55.0547 17.4023C55.4766 16.8398 55.9805 16.3828 56.5664 16.0312C57.1523 15.6797 57.8086 15.4102 58.5352 15.2227C59.2617 15.0352 60.0117 14.9062 60.7852 14.8359C61.3945 14.8125 62.0039 14.8477 62.6133 14.9414C63.1289 15.0352 63.668 15.2109 64.2305 15.4688C64.793 15.7031 65.2734 16.0664 65.6719 16.5586C65.6484 15.3164 65.6016 14.332 65.5312 13.6055C65.4844 12.8555 65.4375 12.2812 65.3906 11.8828C65.2969 11.4141 65.2148 11.0859 65.1445 10.8984C65.0273 10.7344 64.8984 10.5469 64.7578 10.3359C64.6406 10.125 64.4883 9.9375 64.3008 9.77344C64.1133 9.58594 63.8789 9.43359 63.5977 9.31641C63.3164 9.19922 62.9883 9.15234 62.6133 9.17578C62.2148 9.19922 61.8984 9.30469 61.6641 9.49219C61.4297 9.67969 61.2422 9.90234 61.1016 10.1602C60.9844 10.3945 60.9141 10.6523 60.8906 10.9336C60.8672 11.2148 60.8789 11.4609 60.9258 11.6719C60.9727 11.8125 61.043 11.9648 61.1367 12.1289C61.2305 12.2695 61.3594 12.4219 61.5234 12.5859C61.6875 12.75 61.9102 12.8906 62.1914 13.0078C61.6523 13.0781 61.1719 13.1367 60.75 13.1836C60.3281 13.207 59.9648 13.2422 59.6602 13.2891C59.3086 13.3359 59.0039 13.3711 58.7461 13.3945C58.4883 13.418 58.1836 13.4648 57.832 13.5352C57.5273 13.582 57.1523 13.6406 56.707 13.7109C56.2617 13.7812 55.7461 13.875 55.1602 13.9922C55.3008 13.8281 55.4297 13.6758 55.5469 13.5352C55.6641 13.3711 55.7695 13.2305 55.8633 13.1133C55.957 12.9727 56.0508 12.8438 56.1445 12.7266ZM61.418 16.9102C60.9961 16.9336 60.5742 17.0391 60.1523 17.2266C59.7305 17.3906 59.3555 17.6367 59.0273 17.9648C58.6992 18.2695 58.418 18.6328 58.1836 19.0547C57.9727 19.4531 57.8672 19.8984 57.8672 20.3906C57.8672 20.8828 57.9844 21.3164 58.2188 21.6914C58.4766 22.043 58.8047 22.3359 59.2031 22.5703C59.625 22.8047 60.0703 22.9453 60.5391 22.9922C61.0312 23.0391 61.5117 22.9922 61.9805 22.8516C62.4258 22.6875 62.8477 22.4297 63.2461 22.0781C63.6445 21.7031 63.9844 21.3047 64.2656 20.8828C64.5469 20.4375 64.7461 20.0039 64.8633 19.582C64.9805 19.1367 64.9922 18.7734 64.8984 18.4922C64.7109 17.8828 64.2891 17.4609 63.6328 17.2266C62.9766 16.9688 62.2383 16.8633 61.418 16.9102ZM72.4922 10.125C72.9375 10.1484 73.3359 10.1602 73.6875 10.1602C74.0625 10.1367 74.3789 10.1133 74.6367 10.0898C74.9414 10.0664 75.2109 10.043 75.4453 10.0195C75.7969 9.97266 76.1602 9.91406 76.5352 9.84375C76.8633 9.79688 77.2031 9.73828 77.5547 9.66797C77.9297 9.57422 78.293 9.46875 78.6445 9.35156C78.5039 9.70312 78.3867 10.0078 78.293 10.2656C78.1992 10.5234 78.1289 10.7461 78.082 10.9336C78.0117 11.1445 77.9766 11.3203 77.9766 11.4609C77.9531 11.625 77.9414 11.8242 77.9414 12.0586C77.918 12.457 77.918 13.1016 77.9414 13.9922C79.1602 12.9375 80.1797 12.1172 81 11.5312C81.8438 10.9453 82.5117 10.4883 83.0039 10.1602C83.5898 9.78516 84.0469 9.53906 84.375 9.42188C85.2422 9.28125 86.0039 9.48047 86.6602 10.0195C86.9414 10.2539 87.2109 10.5703 87.4688 10.9688C87.7266 11.3438 87.9492 11.8477 88.1367 12.4805C88.3242 13.1133 88.4648 13.875 88.5586 14.7656C88.6523 15.6328 88.6641 16.6758 88.5938 17.8945C88.1016 17.9414 87.6562 17.9883 87.2578 18.0352C86.8828 18.082 86.5664 18.1172 86.3086 18.1406C86.0039 18.1875 85.7227 18.2109 85.4648 18.2109L84.5156 18.3164C84.1875 18.3633 83.7773 18.4102 83.2852 18.457C82.8164 18.4805 82.2422 18.5273 81.5625 18.5977C82.5469 17.8008 83.1797 17.1094 83.4609 16.5234C83.7656 15.9141 83.8945 15.4102 83.8477 15.0117C83.8008 14.5664 83.5898 14.1797 83.2148 13.8516C82.7695 13.5938 82.2891 13.5 81.7734 13.5703C81.3281 13.6172 80.8125 13.8164 80.2266 14.168C79.6406 14.5195 79.0195 15.1758 78.3633 16.1367C78.4102 17.6367 78.457 18.8789 78.5039 19.8633C78.5742 20.8477 78.6328 21.6445 78.6797 22.2539C78.75 22.957 78.8086 23.5078 78.8555 23.9062C78.9258 24.2578 79.0664 24.6328 79.2773 25.0312C79.4414 25.3594 79.6758 25.7227 79.9805 26.1211C80.2852 26.5195 80.6836 26.918 81.1758 27.3164C80.1445 27.2695 79.3008 27.2695 78.6445 27.3164C78.2461 27.3398 77.8945 27.3633 77.5898 27.3867C77.2617 27.4336 76.9102 27.4805 76.5352 27.5273C76.207 27.5742 75.8203 27.6211 75.375 27.668C74.9531 27.7383 74.4844 27.8086 73.9688 27.8789C74.1562 27.6211 74.3086 27.3164 74.4258 26.9648C74.543 26.6367 74.6367 26.3203 74.707 26.0156C74.8008 25.6641 74.8711 25.3008 74.918 24.9258C74.9414 24.5977 74.9531 24.1055 74.9531 23.4492C74.9766 22.793 74.9648 22.0547 74.918 21.2344C74.8945 20.3906 74.8594 19.5234 74.8125 18.6328C74.7656 17.7188 74.707 16.8633 74.6367 16.0664C74.5664 15.2695 74.4844 14.5781 74.3906 13.9922C74.3203 13.3828 74.2383 12.9609 74.1445 12.7266C74.0273 12.4453 73.8867 12.1641 73.7227 11.8828C73.582 11.625 73.4062 11.3555 73.1953 11.0742C72.9844 10.7695 72.75 10.4531 72.4922 10.125ZM88.2773 9C88.7461 9.07031 89.168 9.12891 89.543 9.17578C89.8945 9.19922 90.2109 9.22266 90.4922 9.24609C90.7969 9.26953 91.0898 9.28125 91.3711 9.28125C91.6289 9.28125 91.957 9.26953 92.3555 9.24609C92.6836 9.22266 93.1055 9.19922 93.6211 9.17578C94.1602 9.12891 94.793 9.07031 95.5195 9C95.4727 9.09375 95.3789 9.38672 95.2383 9.87891C95.0977 10.3477 94.957 10.9336 94.8164 11.6367C94.6758 12.3164 94.5469 13.0781 94.4297 13.9219C94.3359 14.7422 94.2891 15.5625 94.2891 16.3828C94.3125 17.1797 94.418 17.9414 94.6055 18.668C94.793 19.3711 95.0977 19.9453 95.5195 20.3906C96.4102 21.3047 97.1953 21.8555 97.875 22.043C98.5781 22.2305 99.1875 22.207 99.7031 21.9727C100.219 21.7383 100.641 21.3867 100.969 20.918C101.297 20.4492 101.531 20.0156 101.672 19.6172C102.023 18.5391 102.234 17.4023 102.305 16.207C102.352 15.1758 102.27 14.0273 102.059 12.7617C101.848 11.4961 101.344 10.207 100.547 8.89453C101.156 8.94141 101.684 8.97656 102.129 9C102.574 9.02344 102.961 9.04688 103.289 9.07031C103.664 9.09375 103.992 9.11719 104.273 9.14062C104.531 9.16406 104.836 9.16406 105.188 9.14062C105.492 9.14062 105.855 9.12891 106.277 9.10547C106.723 9.05859 107.215 9.01172 107.754 8.96484C107.848 11.2617 107.93 13.3125 108 15.1172C108.07 16.8984 108.117 18.4805 108.141 19.8633C108.188 21.2227 108.211 22.4062 108.211 23.4141C108.211 24.3984 108.211 25.2305 108.211 25.9102C108.188 27.5273 108.117 28.5938 108 29.1094C107.812 29.8359 107.473 30.5625 106.98 31.2891C106.512 32.0156 105.914 32.6602 105.188 33.2227C104.461 33.8086 103.617 34.2539 102.656 34.5586C101.719 34.8867 100.688 35.0039 99.5625 34.9102C98.4609 34.8164 97.582 34.6641 96.9258 34.4531C96.293 34.2656 95.7891 34.043 95.4141 33.7852C95.0625 33.5273 94.8047 33.2578 94.6406 32.9766C94.5 32.6953 94.3945 32.4023 94.3242 32.0977C94.2539 31.8164 94.1836 31.5469 94.1133 31.2891C94.043 31.0312 93.9023 30.8086 93.6914 30.6211C93.4336 30.4102 93.1641 30.1992 92.8828 29.9883C92.625 29.8008 92.3438 29.6133 92.0391 29.4258C91.7578 29.2383 91.4766 29.0859 91.1953 28.9688L98.6836 28.5469C98.4727 28.8281 98.3203 29.0859 98.2266 29.3203C98.1328 29.5547 98.0742 29.7539 98.0508 29.918C98.0273 30.1289 98.0391 30.3047 98.0859 30.4453C98.1797 30.7266 98.3438 31.0312 98.5781 31.3594C98.8359 31.7109 99.1641 31.9805 99.5625 32.168C99.9609 32.3789 100.43 32.4492 100.969 32.3789C101.531 32.3086 102.164 32.0156 102.867 31.5C103.453 31.0547 103.945 30.3398 104.344 29.3555C104.672 28.5117 104.93 27.3281 105.117 25.8047C105.305 24.2812 105.27 22.2773 105.012 19.793C104.59 21.2461 104.016 22.3594 103.289 23.1328C102.562 23.9062 101.836 24.4688 101.109 24.8203C100.266 25.2422 99.3867 25.4648 98.4727 25.4883C97.2539 25.4414 96.2109 25.2891 95.3438 25.0312C94.4766 24.75 93.7617 24.375 93.1992 23.9062C92.6367 23.4375 92.1914 22.8867 91.8633 22.2539C91.5586 21.5977 91.3359 20.8711 91.1953 20.0742C91.0547 19.2773 90.9844 18.4805 90.9844 17.6836C90.9844 16.8633 90.9844 16.1016 90.9844 15.3984C91.0078 14.6953 91.0195 14.0625 91.0195 13.5C91.0195 12.9141 90.9609 12.4453 90.8438 12.0938C90.7031 11.7422 90.5156 11.3906 90.2812 11.0391C90.0938 10.7344 89.8359 10.4062 89.5078 10.0547C89.1562 9.67969 88.7461 9.32812 88.2773 9ZM109.336 1.30078C110.906 1.48828 112.266 1.62891 113.414 1.72266C114.562 1.79297 115.512 1.85156 116.262 1.89844C117.129 1.94531 117.855 1.95703 118.441 1.93359C119.051 1.91016 119.883 1.85156 120.938 1.75781C121.828 1.6875 123 1.59375 124.453 1.47656C125.906 1.33594 127.723 1.14844 129.902 0.914062C129.926 1.45313 129.938 1.98047 129.938 2.49609C129.961 2.98828 129.984 3.42188 130.008 3.79688C130.031 4.24219 130.043 4.65234 130.043 5.02734C130.043 5.42578 130.02 5.92969 129.973 6.53906C129.926 7.05469 129.844 7.71094 129.727 8.50781C129.633 9.28125 129.48 10.207 129.27 11.2852C128.941 10.0195 128.625 9 128.32 8.22656C128.016 7.42969 127.734 6.79688 127.477 6.32812C127.195 5.78906 126.914 5.37891 126.633 5.09766C126.328 4.88672 125.965 4.71094 125.543 4.57031C125.168 4.45312 124.688 4.35938 124.102 4.28906C123.539 4.21875 122.871 4.23047 122.098 4.32422C121.98 7.41797 121.898 9.92578 121.852 11.8477C121.805 13.7695 121.77 15.2695 121.746 16.3477C121.723 17.6367 121.711 18.5625 121.711 19.125C121.734 19.9219 121.863 20.707 122.098 21.4805C122.285 22.1367 122.59 22.8164 123.012 23.5195C123.434 24.2227 124.043 24.8438 124.84 25.3828H120.551C120.152 25.3828 119.66 25.4062 119.074 25.4531C118.582 25.5 117.949 25.5469 117.176 25.5938C116.426 25.6406 115.547 25.7227 114.539 25.8398C114.891 25.2305 115.172 24.6797 115.383 24.1875C115.594 23.6953 115.758 23.2734 115.875 22.9219C116.016 22.5 116.121 22.125 116.191 21.7969C116.215 21.3281 116.273 20.3789 116.367 18.9492C116.391 18.3633 116.414 17.6367 116.438 16.7695C116.484 15.9023 116.531 14.8711 116.578 13.6758C116.648 12.4805 116.707 11.1094 116.754 9.5625C116.824 7.99219 116.895 6.22266 116.965 4.25391C116.543 4.13672 116.145 4.14844 115.77 4.28906C115.395 4.40625 115.066 4.55859 114.785 4.74609C114.457 4.98047 114.141 5.26172 113.836 5.58984C113.531 5.98828 113.191 6.50391 112.816 7.13672C112.488 7.67578 112.113 8.39062 111.691 9.28125C111.27 10.1484 110.789 11.2266 110.25 12.5156C110.133 11.1562 110.051 10.043 110.004 9.17578C109.957 8.28516 109.922 7.59375 109.898 7.10156C109.875 6.51563 109.863 6.08203 109.863 5.80078C109.863 5.54297 109.84 5.20312 109.793 4.78125C109.746 4.42969 109.688 3.97266 109.617 3.41016C109.547 2.82422 109.453 2.12109 109.336 1.30078ZM132.152 12.7266C132.27 12.5859 132.34 12.3281 132.363 11.9531C132.41 11.5547 132.504 11.1094 132.645 10.6172C132.809 10.125 133.078 9.60938 133.453 9.07031C133.828 8.53125 134.438 8.02734 135.281 7.55859C136.102 7.08984 136.898 6.80859 137.672 6.71484C138.445 6.62109 139.184 6.65625 139.887 6.82031C140.59 6.98437 141.246 7.24219 141.855 7.59375C142.488 7.94531 143.062 8.33203 143.578 8.75391C143.93 9.03516 144.211 9.44531 144.422 9.98438C144.633 10.5 144.797 11.0859 144.914 11.7422C145.031 12.3984 145.113 13.0898 145.16 13.8164C145.23 14.5195 145.277 15.2109 145.301 15.8906C145.324 16.5469 145.336 17.1562 145.336 17.7188C145.359 18.2578 145.406 18.7031 145.477 19.0547C145.57 19.5703 145.734 20.0156 145.969 20.3906C146.203 20.7422 146.461 21.0469 146.742 21.3047C147.023 21.5391 147.305 21.7266 147.586 21.8672C147.867 22.0078 148.113 22.1133 148.324 22.1836C148.465 22.2539 148.594 22.3008 148.711 22.3242C148.945 22.418 149.109 22.418 149.203 22.3242C149.062 22.6523 148.934 22.9336 148.816 23.168C148.699 23.4023 148.605 23.6016 148.535 23.7656C148.441 23.9531 148.359 24.1055 148.289 24.2227C148.219 24.3633 148.137 24.4922 148.043 24.6094C147.973 24.7266 147.879 24.8555 147.762 24.9961C147.645 25.1367 147.527 25.2891 147.41 25.4531C147.105 25.3359 146.812 25.1953 146.531 25.0312C146.273 24.8672 146.039 24.7148 145.828 24.5742C145.57 24.4102 145.336 24.2461 145.125 24.082C144.914 23.918 144.715 23.7305 144.527 23.5195C144.363 23.332 144.188 23.1328 144 22.9219C143.836 22.7109 143.695 22.4766 143.578 22.2188C143.438 22.5234 143.098 22.957 142.559 23.5195C142.043 24.082 141.363 24.5977 140.52 25.0664C139.676 25.5117 138.691 25.8281 137.566 26.0156C136.465 26.2031 135.246 26.0742 133.91 25.6289C133.324 25.4414 132.773 25.1719 132.258 24.8203C131.742 24.4453 131.297 24 130.922 23.4844C130.57 22.9688 130.312 22.3828 130.148 21.7266C130.008 21.0469 130.02 20.2969 130.184 19.4766C130.348 18.6562 130.641 17.9648 131.062 17.4023C131.484 16.8398 131.988 16.3828 132.574 16.0312C133.16 15.6797 133.816 15.4102 134.543 15.2227C135.27 15.0352 136.02 14.9062 136.793 14.8359C137.402 14.8125 138.012 14.8477 138.621 14.9414C139.137 15.0352 139.676 15.2109 140.238 15.4688C140.801 15.7031 141.281 16.0664 141.68 16.5586C141.656 15.3164 141.609 14.332 141.539 13.6055C141.492 12.8555 141.445 12.2812 141.398 11.8828C141.305 11.4141 141.223 11.0859 141.152 10.8984C141.035 10.7344 140.906 10.5469 140.766 10.3359C140.648 10.125 140.496 9.9375 140.309 9.77344C140.121 9.58594 139.887 9.43359 139.605 9.31641C139.324 9.19922 138.996 9.15234 138.621 9.17578C138.223 9.19922 137.906 9.30469 137.672 9.49219C137.438 9.67969 137.25 9.90234 137.109 10.1602C136.992 10.3945 136.922 10.6523 136.898 10.9336C136.875 11.2148 136.887 11.4609 136.934 11.6719C136.98 11.8125 137.051 11.9648 137.145 12.1289C137.238 12.2695 137.367 12.4219 137.531 12.5859C137.695 12.75 137.918 12.8906 138.199 13.0078C137.66 13.0781 137.18 13.1367 136.758 13.1836C136.336 13.207 135.973 13.2422 135.668 13.2891C135.316 13.3359 135.012 13.3711 134.754 13.3945C134.496 13.418 134.191 13.4648 133.84 13.5352C133.535 13.582 133.16 13.6406 132.715 13.7109C132.27 13.7812 131.754 13.875 131.168 13.9922C131.309 13.8281 131.438 13.6758 131.555 13.5352C131.672 13.3711 131.777 13.2305 131.871 13.1133C131.965 12.9727 132.059 12.8438 132.152 12.7266ZM137.426 16.9102C137.004 16.9336 136.582 17.0391 136.16 17.2266C135.738 17.3906 135.363 17.6367 135.035 17.9648C134.707 18.2695 134.426 18.6328 134.191 19.0547C133.98 19.4531 133.875 19.8984 133.875 20.3906C133.875 20.8828 133.992 21.3164 134.227 21.6914C134.484 22.043 134.812 22.3359 135.211 22.5703C135.633 22.8047 136.078 22.9453 136.547 22.9922C137.039 23.0391 137.52 22.9922 137.988 22.8516C138.434 22.6875 138.855 22.4297 139.254 22.0781C139.652 21.7031 139.992 21.3047 140.273 20.8828C140.555 20.4375 140.754 20.0039 140.871 19.582C140.988 19.1367 141 18.7734 140.906 18.4922C140.719 17.8828 140.297 17.4609 139.641 17.2266C138.984 16.9688 138.246 16.8633 137.426 16.9102ZM149.66 27.9492C149.895 27.5977 150.082 27.2695 150.223 26.9648C150.363 26.6602 150.48 26.4023 150.574 26.1914C150.668 25.9336 150.738 25.6992 150.785 25.4883C150.809 25.3477 150.82 24.9375 150.82 24.2578C150.82 23.5781 150.797 22.7227 150.75 21.6914C150.727 20.6602 150.691 19.5 150.645 18.2109C150.621 16.9219 150.574 15.6094 150.504 14.2734C150.457 12.9375 150.398 11.6367 150.328 10.3711C150.281 9.10547 150.234 7.96875 150.188 6.96094C150.141 5.92969 150.094 5.08594 150.047 4.42969C150 3.77344 149.965 3.39844 149.941 3.30469C149.895 3.16406 149.812 3.02344 149.695 2.88281C149.461 2.60156 149.062 2.33203 148.5 2.07422C149.695 1.76953 150.609 1.52344 151.242 1.33594C151.617 1.24219 151.945 1.14844 152.227 1.05469C152.484 0.960938 152.742 0.867187 153 0.773438C153.211 0.679688 153.445 0.574219 153.703 0.457031C153.961 0.316406 154.195 0.164062 154.406 0C154.289 0.679688 154.195 1.33594 154.125 1.96875C154.055 2.60156 153.996 3.1875 153.949 3.72656C153.902 4.33594 153.879 4.92188 153.879 5.48438C153.762 6.63281 153.691 7.88672 153.668 9.24609C153.668 10.582 153.68 11.9414 153.703 13.3242C153.727 14.707 153.773 16.0547 153.844 17.3672C153.914 18.6797 153.984 19.875 154.055 20.9531C154.148 22.0078 154.23 22.9102 154.301 23.6602C154.395 24.3867 154.465 24.8555 154.512 25.0664C154.605 25.418 154.699 25.7578 154.793 26.0859C154.887 26.3672 154.992 26.6602 155.109 26.9648C155.227 27.293 155.367 27.5508 155.531 27.7383H152.121C151.816 27.7383 151.523 27.75 151.242 27.7734C150.984 27.7969 150.715 27.8203 150.434 27.8438C150.152 27.8672 149.895 27.9023 149.66 27.9492ZM165.938 21.3047C166.594 21.3047 167.203 21.2344 167.766 21.0938C168.234 20.9766 168.68 20.7891 169.102 20.5312C169.547 20.25 169.84 19.8398 169.98 19.3008C170.449 19.3945 170.848 19.4766 171.176 19.5469C171.504 19.5938 171.785 19.6406 172.02 19.6875C172.277 19.7578 172.5 19.8047 172.688 19.8281C172.875 19.875 173.098 19.9219 173.355 19.9688C173.59 20.0156 173.871 20.0742 174.199 20.1445C174.551 20.1914 174.961 20.2617 175.43 20.3555C175.078 20.3086 174.715 20.3438 174.34 20.4609C173.988 20.5781 173.648 20.707 173.32 20.8477C172.945 21.0117 172.594 21.2109 172.266 21.4453C172.055 21.5859 171.809 21.7969 171.527 22.0781C171.27 22.3594 170.895 22.6289 170.402 22.8867C169.91 23.1445 169.254 23.3672 168.434 23.5547C167.637 23.7188 166.605 23.7773 165.34 23.7305C163.816 23.6836 162.539 23.4141 161.508 22.9219C160.477 22.4062 159.645 21.7852 159.012 21.0586C158.379 20.3086 157.922 19.5 157.641 18.6328C157.359 17.7656 157.207 16.957 157.184 16.207C157.16 15.457 157.383 14.6719 157.852 13.8516C158.32 13.0312 158.977 12.2812 159.82 11.6016C160.688 10.9219 161.73 10.3711 162.949 9.94922C164.168 9.50391 165.504 9.28125 166.957 9.28125C167.801 9.28125 168.574 9.38672 169.277 9.59766C170.004 9.78516 170.66 10.043 171.246 10.3711C171.855 10.6992 172.383 11.0742 172.828 11.4961C173.273 11.8945 173.648 12.3047 173.953 12.7266C174.258 13.1719 174.516 13.6406 174.727 14.1328C174.914 14.5547 175.066 15.0352 175.184 15.5742C175.301 16.1133 175.336 16.6641 175.289 17.2266C173.508 17.2734 172.066 17.3086 170.965 17.332C169.887 17.3555 169.043 17.3672 168.434 17.3672H166.852H165.656C165.234 17.3672 164.684 17.3789 164.004 17.4023C163.324 17.4258 162.492 17.4609 161.508 17.5078C161.625 18.4453 161.918 19.1719 162.387 19.6875C162.879 20.1797 163.395 20.5547 163.934 20.8125C164.543 21.0938 165.211 21.2578 165.938 21.3047ZM162.773 14.9766C163.523 15.0234 164.145 15.0586 164.637 15.082C165.152 15.1055 165.574 15.1289 165.902 15.1523C166.254 15.1758 166.535 15.1875 166.746 15.1875H167.625C168.211 15.1875 169.301 15.1523 170.895 15.082C170.824 14.0508 170.602 13.2656 170.227 12.7266C169.875 12.1875 169.5 11.7891 169.102 11.5312C168.633 11.25 168.117 11.0859 167.555 11.0391C166.031 11.0625 164.895 11.3789 164.145 11.9883C163.418 12.5977 162.961 13.5938 162.773 14.9766ZM192.199 6.89062C191.988 7.40625 191.801 7.875 191.637 8.29688C191.496 8.71875 191.367 9.09375 191.25 9.42188C191.133 9.79688 191.027 10.125 190.934 10.4062C190.84 10.7344 190.734 11.1094 190.617 11.5312C190.5 11.9062 190.348 12.375 190.16 12.9375C189.996 13.4766 189.797 14.1211 189.562 14.8711C189.375 13.7461 189.035 12.8555 188.543 12.1992C188.051 11.5195 187.547 10.9922 187.031 10.6172C186.422 10.1953 185.766 9.89062 185.062 9.70312C183.797 9.49219 182.883 9.51562 182.32 9.77344C181.758 10.0312 181.383 10.3594 181.195 10.7578C181.102 10.9219 180.996 11.1328 180.879 11.3906C180.785 11.625 180.703 11.8711 180.633 12.1289C180.586 12.3867 180.574 12.6445 180.598 12.9023C180.621 13.1602 180.727 13.3711 180.914 13.5352C181.031 13.6523 181.336 13.8164 181.828 14.0273C182.32 14.2148 182.906 14.4375 183.586 14.6953C184.289 14.9297 185.027 15.1875 185.801 15.4688C186.598 15.75 187.348 16.0312 188.051 16.3125C188.754 16.5938 189.363 16.875 189.879 17.1562C190.395 17.4375 190.734 17.6953 190.898 17.9297C191.039 18.1641 191.191 18.4805 191.355 18.8789C191.543 19.2539 191.672 19.6758 191.742 20.1445C191.836 20.5898 191.859 21.0586 191.812 21.5508C191.789 22.0195 191.66 22.4883 191.426 22.957C191.191 23.4258 190.816 23.8594 190.301 24.2578C189.809 24.6562 189.141 24.9844 188.297 25.2422C187.312 25.5469 186.363 25.6289 185.449 25.4883C184.535 25.3477 183.691 25.1367 182.918 24.8555C182.168 24.5742 181.512 24.3047 180.949 24.0469C180.387 23.7656 179.988 23.6484 179.754 23.6953C179.496 23.7422 179.203 23.8711 178.875 24.082C178.547 24.293 178.23 24.5156 177.926 24.75C177.645 24.9609 177.398 25.1602 177.188 25.3477C176.977 25.5117 176.871 25.5703 176.871 25.5234C176.871 25.4766 176.906 25.3359 176.977 25.1016C177.07 24.8672 177.164 24.5859 177.258 24.2578C177.375 23.9062 177.48 23.5312 177.574 23.1328C177.691 22.7109 177.773 22.3125 177.82 21.9375C177.867 21.6328 177.926 21.2578 177.996 20.8125C178.043 20.4141 178.102 19.9336 178.172 19.3711C178.266 18.7852 178.371 18.082 178.488 17.2617C178.605 17.8711 178.77 18.3984 178.98 18.8438C179.215 19.2891 179.438 19.6758 179.648 20.0039C179.906 20.3789 180.152 20.6953 180.387 20.9531C180.738 21.2812 181.148 21.5859 181.617 21.8672C182.109 22.1484 182.602 22.3945 183.094 22.6055C183.586 22.793 184.055 22.9102 184.5 22.957C184.945 23.0039 185.32 22.957 185.625 22.8164C185.93 22.6758 186.188 22.418 186.398 22.043C186.633 21.668 186.797 21.2578 186.891 20.8125C186.984 20.3672 187.02 19.9453 186.996 19.5469C186.973 19.125 186.867 18.7852 186.68 18.5273C186.539 18.3633 186.211 18.1523 185.695 17.8945C185.203 17.6367 184.605 17.3555 183.902 17.0508C183.223 16.7461 182.496 16.4297 181.723 16.1016C180.973 15.7734 180.258 15.4453 179.578 15.1172C178.922 14.7656 178.371 14.4375 177.926 14.1328C177.504 13.8047 177.27 13.5117 177.223 13.2539C177.176 12.8789 177.141 12.4688 177.117 12.0234C177.094 11.5547 177.117 11.0977 177.188 10.6523C177.281 10.1836 177.445 9.73828 177.68 9.31641C177.938 8.89453 178.312 8.54297 178.805 8.26172C179.133 8.07422 179.566 7.93359 180.105 7.83984C180.645 7.74609 181.242 7.69922 181.898 7.69922C182.555 7.67578 183.234 7.69922 183.938 7.76953C184.641 7.81641 185.309 7.88672 185.941 7.98047C186.598 8.05078 187.184 8.14453 187.699 8.26172C188.238 8.37891 188.648 8.48438 188.93 8.57812C189.258 8.69531 189.609 8.70703 189.984 8.61328C190.312 8.54297 190.664 8.39062 191.039 8.15625C191.414 7.92188 191.801 7.5 192.199 6.89062Z" fill="#788284"/>
</svg>
