<svg width="36" height="36" viewBox="0 0 36 36" fill="none" xmlns="http://www.w3.org/2000/svg">
<path d="M11.25 0.795C8.565 2.52 6.75 5.565 6.75 9.045C6.75 12.525 8.565 15.57 11.295 17.295C6.69 17.295 3 13.605 3 9.045C3 6.85696 3.86919 4.75854 5.41637 3.21137C6.96354 1.66419 9.06196 0.795 11.25 0.795ZM28.605 3.045L30.75 5.19L7.395 28.545L5.25 26.4L28.605 3.045ZM19.335 6.69L17.115 5.295L14.955 6.795L15.585 4.245L13.5 2.655L16.125 2.475L16.995 0L18 2.445L20.595 2.49L18.57 4.185L19.335 6.69ZM14.385 12.105L12.645 11.01L10.965 12.18L11.475 10.2L9.84 8.955L11.88 8.82L12.555 6.885L13.32 8.79L15.36 8.835L13.785 10.14L14.385 12.105ZM28.5 18.045C28.5 20.233 27.6308 22.3315 26.0836 23.8786C24.5365 25.4258 22.438 26.295 20.25 26.295C18.42 26.295 16.725 25.695 15.36 24.69L26.895 13.155C27.9 14.52 28.5 16.215 28.5 18.045ZM21.9 27.915L26.055 26.19L25.695 31.215L21.9 27.915ZM28.395 23.865L30.12 19.71L33.42 23.52L28.395 23.865ZM30.12 16.425L28.41 12.255L33.42 12.615L30.12 16.425ZM14.445 26.19L18.6 27.915L14.805 31.2L14.445 26.19Z" fill="#B8C5BC"/>
</svg>
