<svg width="48" height="54" viewBox="0 0 48 54" fill="none" xmlns="http://www.w3.org/2000/svg">
<path d="M11.2709 17.6289C12.5126 17.9088 13.6962 18.1188 14.8215 18.2587C15.9469 18.3987 16.9364 18.5037 17.7901 18.5736C18.7991 18.6786 19.7304 18.7136 20.5841 18.6786C21.6707 18.6786 23.0288 18.5911 24.6587 18.4162C26.3273 18.2412 28.0347 18.0838 29.781 17.9438C31.5272 17.7689 33.1958 17.6639 34.7868 17.6289C36.4166 17.559 37.736 17.6464 38.745 17.8913C39.7539 18.1013 40.7822 18.4337 41.83 18.8885C42.9165 19.3084 43.9061 19.8507 44.7986 20.5155C45.6911 21.1453 46.4284 21.8976 47.0105 22.7723C47.5925 23.6121 47.9224 24.5742 48 25.6589C47.9612 27.0235 47.6119 28.3006 46.9523 29.4902C46.409 30.5049 45.4971 31.5546 44.2165 32.6392C42.9359 33.6889 41.0927 34.4936 38.6867 35.0535C39.8897 35.1934 40.918 35.4383 41.7718 35.7882C42.6643 36.1031 43.421 36.488 44.0419 36.9429C44.7016 37.3627 45.2254 37.8351 45.6135 38.3599C46.0403 38.8848 46.3702 39.4096 46.603 39.9344C47.1851 41.159 47.4567 42.5236 47.4179 44.0281C47.1851 45.9875 46.7388 47.5445 46.0791 48.6992C45.4583 49.8538 44.7404 50.746 43.9255 51.3758C43.1105 52.0056 42.2762 52.443 41.4225 52.6879C40.5688 52.9328 39.7927 53.1253 39.0942 53.2652C38.3957 53.4052 37.542 53.4752 36.5331 53.4752C35.5241 53.4752 34.4376 53.4577 33.2734 53.4227C32.1481 53.3527 30.9839 53.3002 29.781 53.2652C28.578 53.1953 27.4332 53.1953 26.3467 53.2652C25.4542 53.3352 24.3676 53.4052 23.0871 53.4752C22.0005 53.5451 20.6423 53.6326 19.0125 53.7376C17.3827 53.8076 15.4812 53.895 13.3081 54C13.735 53.7201 14.0842 53.4052 14.3559 53.0553C14.6663 52.6704 14.9186 52.338 15.1126 52.0581C15.3066 51.7082 15.4812 51.3758 15.6365 51.0609C15.7529 50.781 15.8499 50.0113 15.9275 48.7517C16.0051 47.492 16.0633 45.9875 16.1021 44.2381C16.1409 42.4536 16.1603 40.5467 16.1603 38.5174C16.1991 36.453 16.1797 34.4761 16.1021 32.5867C16.0633 30.6623 15.9857 28.9654 15.8693 27.4958C15.7917 25.9913 15.6753 24.9066 15.52 24.2419C15.2872 23.5071 14.9768 22.7548 14.5887 21.9851C14.2783 21.3203 13.832 20.603 13.2499 19.8332C12.7067 19.0635 12.047 18.3287 11.2709 17.6289ZM23.5527 22.9823C23.5527 23.1222 23.5721 23.5946 23.6109 24.3993C23.6497 25.0991 23.6885 26.1837 23.7273 27.6533C23.805 29.0878 23.902 31.1347 24.0184 33.7939C24.9885 34.1787 25.9392 34.3887 26.8706 34.4237C27.8019 34.4237 28.6362 34.3887 29.3735 34.3187C30.2272 34.2137 31.0421 34.0388 31.8182 33.7939C32.866 33.409 33.6809 32.7792 34.263 31.9044C34.8838 31.0297 35.2913 30.12 35.4853 29.1753C35.7182 28.1956 35.7764 27.2859 35.6599 26.4462C35.5435 25.5714 35.2913 24.9416 34.9032 24.5568C34.1659 23.9619 33.254 23.4721 32.1675 23.0872C31.2362 22.7723 30.0526 22.5624 28.6168 22.4574C27.2198 22.3175 25.5318 22.4924 23.5527 22.9823ZM23.2617 47.8594C24.6975 48.5242 25.9586 48.9616 27.0452 49.1715C28.1317 49.3815 29.0437 49.4864 29.781 49.4864C30.6347 49.4864 31.372 49.3815 31.9929 49.1715C32.7302 48.8566 33.448 48.4367 34.1465 47.9119C34.8838 47.3521 35.4271 46.7048 35.7764 45.97C36.1644 45.2003 36.3196 44.3605 36.242 43.4508C36.1644 42.5061 35.7182 41.4739 34.9032 40.3543C34.1659 39.5495 33.2734 38.9197 32.2257 38.4649C31.2944 38.08 30.1108 37.8351 28.675 37.7301C27.278 37.6251 25.5512 37.9226 23.4945 38.6223L23.2617 47.8594Z" fill="#788284"/>
<path d="M0 0.577319C2.59995 0.857231 4.85065 1.06716 6.75211 1.20712C8.65356 1.31209 10.2252 1.39956 11.4669 1.46954C12.9027 1.53952 14.1057 1.55701 15.0758 1.52202C16.0848 1.48703 17.4623 1.39956 19.2086 1.2596C20.6832 1.15464 22.6234 1.01468 25.0294 0.839736C27.4353 0.629802 30.4427 0.34989 34.0516 0C34.0904 0.804747 34.1098 1.592 34.1098 2.36176C34.1486 3.09653 34.1874 3.74382 34.2262 4.30365C34.265 4.96844 34.2844 5.58075 34.2844 6.14057C34.2844 6.73538 34.2456 7.48765 34.168 8.39736C34.0904 9.16712 33.9546 10.1468 33.7605 11.3364C33.6053 12.4911 33.3531 13.8731 33.0038 15.4826C32.4606 13.5932 31.9367 12.0712 31.4322 10.9166C30.9278 9.72694 30.4621 8.78224 30.0352 8.08246C29.5696 7.27771 29.1039 6.66541 28.6382 6.24554C28.1338 5.93064 27.5323 5.66822 26.8338 5.45828C26.2129 5.28334 25.4174 5.14338 24.4473 5.03842C23.516 4.93345 22.41 4.95094 21.1294 5.0909C20.9354 9.70945 20.7996 13.4533 20.722 16.3224C20.6444 19.1915 20.5862 21.4308 20.5474 23.0403C20.5086 24.9647 20.4891 26.3467 20.4891 27.1865C20.528 28.3761 20.7414 29.5482 21.1294 30.7029C21.4399 31.6825 21.9443 32.6972 22.6428 33.7469C23.3413 34.7966 24.3503 35.7238 25.6696 36.5285H18.5683C17.9086 36.5285 17.0937 36.5635 16.1236 36.6335C15.3087 36.7035 14.2609 36.7734 12.9803 36.8434C11.7386 36.9134 10.2834 37.0359 8.61476 37.2108C9.19683 36.3011 9.6625 35.4788 10.0117 34.7441C10.361 34.0093 10.6326 33.3795 10.8267 32.8547C11.0595 32.2249 11.2341 31.665 11.3505 31.1752C11.3893 30.4754 11.4863 29.0584 11.6416 26.924C11.6804 26.0493 11.7192 24.9647 11.758 23.6701C11.8356 22.3755 11.9132 20.836 11.9908 19.0515C12.1072 17.2671 12.2042 15.2202 12.2818 12.9109C12.3983 10.5667 12.5147 7.92501 12.6311 4.98593C11.9326 4.81099 11.2729 4.82848 10.652 5.03842C10.0311 5.21336 9.48787 5.44079 9.02221 5.7207C8.47894 6.07059 7.95507 6.49046 7.4506 6.98031C6.94613 7.57512 6.38346 8.34488 5.76257 9.28958C5.2193 10.0943 4.59842 11.1615 3.89992 12.4911C3.20143 13.7857 2.40592 15.3952 1.5134 17.3196C1.31938 15.2902 1.18356 13.6282 1.10595 12.3336C1.02834 11.004 0.97013 9.97187 0.931325 9.2371C0.89252 8.36237 0.873117 7.71508 0.873117 7.29521C0.873117 6.91033 0.834312 6.40299 0.756702 5.77319C0.679091 5.24835 0.582078 4.56606 0.465663 3.72633C0.349247 2.8516 0.194026 1.80193 0 0.577319Z" fill="#788284"/>
</svg>
